# xmcd
#
# Track frame offsets:
#	150
#	21884
#	37774
#	50474
#	71401
#	90828
#	108695
#	124170
#	138466
#	154613
#	175859
#
# Disc length: 2705 seconds
#
# Revision: 0
# Processed by: cddbd v1.5.1PL0 Copyright (c) Steve Scherf et al.
# Submitted via: audiograbber 1.83.01
#
DISCID=860a8f0b
DTITLE=White, Lari - Stepping Stone - White, Lari - Stepping Stone
DYEAR=1998
DGENRE=Country
TTITLE0=John Wayne Walking
TTITLE1=Stepping Stone
TTITLE2=That's What You Do
TTITLE3=You Can't Go Home Again (Flies On The Butter)
TTITLE4=Only God Could Stop Me Loving You
TTITLE5=On A Night Like This
TTITLE6=You Can't Take That From Me
TTITLE7=This Is Love
TTITLE8=Take Me
TTITLE9=Tired
TTITLE10=Look Homeward Angel
EXTD=
EXTT0=
EXTT1=
EXTT2=
EXTT3=
EXTT4=
EXTT5=
EXTT6=
EXTT7=
EXTT8=
EXTT9=
EXTT10=
PLAYORDER=
